# xmcd
#
# Track frame offsets: 
#        150
#        24322
#        48509
#        74203
#        89535
#        103820
#        119357
#        133831
#        160758
#        179483
#        195483
#        213302
#        229382
#
# Disc length: 3394 seconds
#
# Revision: 3
# Processed by: cddbd v1.4PL0 Copyright (c) Steve Scherf et al.
# Submitted via: ExactAudioCopy v0.90b4
#
DISCID=c20d400d
DTITLE=The Dandy Warhols - Thirteen Tales From Urban Bohemia
DYEAR=2000
DGENRE=Alt. Rock
TTITLE0=Godless
TTITLE1=Mohammed
TTITLE2=Nietzsche
TTITLE3=Country Leaver
TTITLE4=Solid
TTITLE5=Horse Pills
TTITLE6=Get Off
TTITLE7=Sleep
TTITLE8=Cool Scene
TTITLE9=Bohemian Like You
TTITLE10=Shakin'
TTITLE11=Big Indian
TTITLE12=The Gospel
EXTD=
EXTT0=
EXTT1=
EXTT2=
EXTT3=
EXTT4=
EXTT5=
EXTT6=
EXTT7=
EXTT8=
EXTT9=
EXTT10=
EXTT11=
EXTT12=
PLAYORDER=
